<svg height="108" width="108" viewBox="0 0 108 108" xmlns="http://www.w3.org/2000/svg"><path d="m54 0c29.824219 0 54 24.175781 54 54s-24.175781 54-54 54-54-24.175781-54-54 24.175781-54 54-54zm0 0" fill="#fff"/><path d="m54.046875 10.125c-12.105469 0-21.90625 10.117188-21.90625 22.617188v8.476562c-4.25.796875-8.515625 1.855469-8.515625 3.230469v44.238281s0 1.222656 1.332031 1.800781c4.824219 2.019531 23.8125 8.957031 28.175781 10.546875.5625.214844.71875.214844.867188.214844.207031 0 .304688 0 .867188-.214844 4.363281-1.589844 23.398437-8.527344 28.226562-10.546875 1.234375-.527343 1.28125-1.75 1.28125-1.75v-44.289062c0-1.375-4.203125-2.484375-8.46875-3.230469v-8.476562c.0625-12.5-9.796875-22.617188-21.859375-22.617188zm0 10.808594c7.136719 0 11.449219 4.453125 11.449219 11.820312v7.367188c-8-.578125-14.832032-.578125-22.882813 0v-7.367188c0-7.378906 4.3125-11.820312 11.433594-11.820312zm-.046875 30.035156c9.957031 0 18.316406.796875 18.316406 2.222656v27.597656c0 .429688-.050781.480469-.417968.632813-.351563.164063-16.980469 6.355469-16.980469 6.355469s-.671875.214844-.871094.214844c-.207031 0-.867187-.265626-.867187-.265626s-16.628907-6.191406-16.980469-6.355468c-.355469-.164063-.417969-.214844-.417969-.632813v-27.597656c-.097656-1.425781 8.261719-2.171875 18.21875-2.171875zm0 0"/></svg>