<svg width="60" height="60" viewBox="0 0 60 60" fill="none" xmlns="http://www.w3.org/2000/svg">
<rect width="60" height="60" rx="30" fill="#CC703C"/>
<path fill-rule="evenodd" clip-rule="evenodd" d="M46 12L45.782 12.5278L45.0647 14.2166L44.5885 15.3056C40.9726 23.4679 38.1596 27.3418 35.1697 27.3418C33.4465 27.3418 32.4267 26.8886 31.1064 25.825L30.7253 25.5092C29.7754 24.7098 29.3753 24.5133 28.4616 24.5133C27.9852 24.5133 27.133 25.0697 26.0547 26.3685C24.9363 27.7152 23.71 29.7049 22.392 32.3256L22.2693 32.5709L35.097 32.5714L33.4998 35.5929H21.5211V48H18V12H46ZM41.0087 15.0225L21.5209 15.0214V27.0192C23.8558 23.3265 26.0745 21.4726 28.4616 21.4726C30.3174 21.4726 31.4109 21.949 32.7905 23.0578L33.1841 23.3836C34.071 24.1299 34.4128 24.3011 35.1697 24.3011C36.0066 24.3011 38.2229 21.0939 41.0087 15.0225Z" fill="white"/>
</svg>
